PathFileType	4	(X/Y/Z)	C:\Users\u0088756\Documents\documenten\software\SoftwareProjects\DC_TrackingSimulation\Data\Patient2\InputData\MarkerFile_DataSel.trc
DataRate	CameraRate	NumFrames	NumMarkers	Units	OrigDataRate	OrigDataStartFrame	OrigNumFrames
200.000000	200.000000	4	45	m	200.000000	129	257
Frame#	Times		CLAV		LSHO		LUA1		LELB		LLA1		LWRA		LWRB		LFIN		RSHO		RUA1		RELB		RLA1		RWRA		RWRB		RFIN		LASI		RASI		RPSI		LPSI		LTHI3		LKNE		LKNEmed		LTIB		LTIB2		LTIB3		LANK		LANKmed		LHEE		LTOE		LLatFoot		RTHI		RTHI2		RTHI3		RKNE		RTIB		RTIB2		RTIB3		RANK		RANKmed		RHEE		RTOE		RLatFoot		Unlabeled51		Unlabeled52		*52
			X1	Y1	Z1	X2	Y2	Z2	X3	Y3	Z3	X4	Y4	Z4	X5	Y5	Z5	X6	Y6	Z6	X7	Y7	Z7	X8	Y8	Z8	X9	Y9	Z9	X10	Y10	Z10	X11	Y11	Z11	X12	Y12	Z12	X13	Y13	Z13	X14	Y14	Z14	X15	Y15	Z15	X16	Y16	Z16	X17	Y17	Z17	X18	Y18	Z18	X19	Y19	Z19	X20	Y20	Z20	X21	Y21	Z21	X22	Y22	Z22	X23	Y23	Z23	X24	Y24	Z24	X25	Y25	Z25	X26	Y26	Z26	X27	Y27	Z27	X28	Y28	Z28	X29	Y29	Z29	X30	Y30	Z30	X31	Y31	Z31	X32	Y32	Z32	X33	Y33	Z33	X34	Y34	Z34	X35	Y35	Z35	X36	Y36	Z36	X37	Y37	Z37	X38	Y38	Z38	X39	Y39	Z39	X40	Y40	Z40	X41	Y41	Z41	X42	Y42	Z42	X43	Y43	Z43	X44	Y44	Z44	X45	Y45	Z45

129	0.64	0.97913	1.4323	-0.062017	0.87509	1.4492	-0.27461	0.94361	1.2034	-0.31367	0.93571	1.0999	-0.32735	1.0553	1.0232	-0.34103	1.1565	0.93348	-0.28982	1.1132	0.89463	-0.34721	1.1934	0.88268	-0.34809	0.89699	1.4738	0.15406	0.86684	1.2395	0.23197	0.83584	1.1351	0.24551	0.87905	1.0088	0.28086	0.90822	0.87048	0.23932	0.84716	0.87339	0.29336	0.89731	0.82822	0.2954	0.98012	0.94408	-0.15522	1.0005	0.95844	0.085804	0.75559	0.99884	0.013332	0.74876	1.0055	-0.054689	0.82526	0.6485	-0.21497	0.7749	0.45893	-0.16225	0.8002	0.45648	-0.04781	0.72257	0.27435	-0.16649	0.66514	0.28385	-0.16471	0.68797	0.23106	-0.16056	0.63374	0.069906	-0.11159	0.68449	0.081486	-0.026784	0.56739	0.019367	-0.043109	0.80061	0.021015	-0.099717	0.69456	-0.013418	-0.15167	1.0319	0.71449	0.16305	0.97761	0.6869	0.17207	1.0201	0.66347	0.16611	1.082	0.48606	0.10902	1.1589	0.30199	0.12834	1.1109	0.27904	0.13424	1.1547	0.24693	0.128	1.222	0.093216	0.097911	1.2345	0.11663	0.003013	1.1804	0.015383	0.041946	1.3842	0.13276	0.043583	1.3341	0.064296	0.11965	-0.23269	-0.025404	-0.67877	-0.31789	-0.031122	0.67261	0.83894	1.5959	0.0027656
130	0.645	0.98433	1.4315	-0.061636	0.87989	1.4483	-0.2741	0.9474	1.2023	-0.31331	0.9393	1.0988	-0.32665	1.0587	1.0218	-0.34059	1.1595	0.93167	-0.2895	1.116	0.89293	-0.34682	1.1963	0.88072	-0.34784	0.90258	1.4729	0.15455	0.87346	1.2383	0.23236	0.84277	1.1338	0.24596	0.88639	1.0076	0.28093	0.91555	0.86936	0.23917	0.85476	0.87207	0.2935	0.90505	0.82704	0.29521	0.98515	0.94334	-0.15497	1.0056	0.95764	0.086018	0.76072	0.99804	0.013919	0.75379	1.0047	-0.054144	0.82975	0.64794	-0.2151	0.77896	0.45831	-0.1621	0.80431	0.45595	-0.047902	0.72513	0.27391	-0.16618	0.66768	0.28409	-0.16466	0.69017	0.23112	-0.1604	0.63428	0.070456	-0.1114	0.68526	0.081756	-0.026675	0.56762	0.019863	-0.04287	0.80095	0.020894	-0.099779	0.69456	-0.013334	-0.15156	1.0372	0.71436	0.16336	0.98302	0.6865	0.17226	1.0256	0.66328	0.16632	1.0876	0.48539	0.10937	1.1646	0.3016	0.12844	1.1167	0.27862	0.13463	1.1605	0.24651	0.12809	1.2277	0.092786	0.097963	1.24	0.11607	0.003008	1.1861	0.014709	0.042283	1.3897	0.13255	0.043225	1.3399	0.064146	0.11953	-0.22784	-0.025387	-0.67873	-0.31303	-0.031166	0.67258	0.84412	1.5951	0.0031764
131	0.65	0.98949	1.4307	-0.061264	0.88477	1.4473	-0.27347	0.95134	1.2013	-0.31259	0.94274	1.0979	-0.32618	1.0619	1.0202	-0.34012	1.1625	0.92977	-0.28923	1.1187	0.89117	-0.34646	1.199	0.87867	-0.3476	0.90811	1.472	0.15509	0.88016	1.2371	0.2328	0.84976	1.1326	0.2464	0.89388	1.0064	0.281	0.92296	0.86825	0.23904	0.8628	0.87089	0.29365	0.91291	0.82586	0.29506	0.99023	0.9426	-0.15473	1.0107	0.95684	0.08627	0.7658	0.99734	0.014443	0.75887	1.0039	-0.053609	0.83426	0.64723	-0.21497	0.78311	0.45768	-0.16195	0.80864	0.45511	-0.047889	0.72789	0.27346	-0.16613	0.67046	0.28428	-0.16453	0.69243	0.23116	-0.16022	0.63489	0.071096	-0.1113	0.68601	0.082006	-0.026501	0.56792	0.020721	-0.042542	0.80113	0.020598	-0.099799	0.69451	-0.013142	-0.15145	1.0428	0.71441	0.1636	0.98891	0.68628	0.1725	1.0315	0.66324	0.1665	1.0934	0.48478	0.10966	1.1702	0.30102	0.12848	1.1223	0.27813	0.13493	1.166	0.24596	0.12818	1.2327	0.092126	0.098125	1.2448	0.11519	0.0030715	1.191	0.013919	0.042623	1.3946	0.13172	0.042946	1.345	0.063456	0.11949	-0.22296	-0.025413	-0.67877	-0.30823	-0.031148	0.67263	0.84931	1.5943	0.0036054
132	0.655	0.99471	1.43	-0.060876	0.8897	1.4466	-0.27294	0.95518	1.2003	-0.31215	0.94633	1.0969	-0.32541	1.0651	1.0187	-0.33965	1.1654	0.92776	-0.28897	1.1213	0.88939	-0.34608	1.2015	0.87653	-0.34738	0.91375	1.4712	0.15559	0.88689	1.2359	0.23324	0.85682	1.1313	0.24689	0.90145	1.0052	0.28111	0.93047	0.86719	0.23888	0.8704	0.86963	0.29389	0.92091	0.82473	0.29487	0.99534	0.94189	-0.15446	1.0158	0.95614	0.086583	0.77095	0.99644	0.015036	0.76402	1.003	-0.053075	0.83899	0.64656	-0.21477	0.78742	0.45703	-0.16179	0.81299	0.45424	-0.047875	0.73077	0.27316	-0.16595	0.67325	0.28453	-0.16433	0.69479	0.23125	-0.16004	0.63564	0.071836	-0.11125	0.68676	0.082336	-0.026383	0.56834	0.021921	-0.04255	0.80137	0.020336	-0.099791	0.69474	-0.012917	-0.15134	1.0488	0.71465	0.16376	0.99503	0.68614	0.17266	1.0378	0.66344	0.16654	1.0995	0.4843	0.1099	1.1757	0.30033	0.12853	1.1277	0.27768	0.13522	1.1713	0.24528	0.12831	1.2372	0.091146	0.098314	1.249	0.11394	0.0031793	1.1951	0.0129	0.043103	1.399	0.13028	0.042779	1.3493	0.062236	0.11951	-0.21815	-0.025412	-0.67877	-0.30334	-0.03111	0.67255	0.85451	1.5936	0.0040362
